<svg version="1.1" id="Layer_1" xmlns="http://www.w3.org/2000/svg" xmlns:xlink="http://www.w3.org/1999/xlink" x="0px" y="0px"
	 width="100%" viewBox="0 0 1024 1024" xml:space="preserve">
<path fill="#FDFDFE" fill-rule="evenodd" opacity="1.000000" stroke="none" 
	d="
M365.326233,488.308960 
	C397.425934,427.446930 429.336121,366.903473 461.198334,306.334839 
	C462.369568,304.108459 463.497803,302.878082 466.405579,302.880859 
	C569.731079,302.978973 673.056641,302.958160 776.382202,302.961212 
	C777.171997,302.961212 777.961792,303.059509 779.471130,303.159637 
	C777.962830,306.009521 776.692688,308.453247 775.383606,310.875946 
	C767.563904,325.346680 759.630920,339.757812 751.989807,354.322144 
	C750.271973,357.596313 748.293945,358.527039 744.656006,358.520172 
	C679.665649,358.397644 614.674927,358.442841 549.684326,358.463348 
	C548.386292,358.463745 547.088257,358.599976 545.125305,358.710144 
	C549.412476,369.599396 553.588501,380.047089 557.645081,390.540894 
	C568.598022,418.873993 579.574219,447.198700 590.335571,475.604645 
	C591.798706,479.466766 593.687500,480.716583 597.846008,480.703094 
	C645.507446,480.548279 693.169617,480.619263 740.831604,480.629974 
	C742.457458,480.630341 744.083252,480.629974 746.426636,480.629974 
	C740.153625,492.277100 734.219666,503.314880 728.265625,514.341797 
	C724.872375,520.626099 721.282837,526.811523 718.110962,533.204773 
	C716.721375,536.005615 715.030701,536.856689 711.966125,536.847778 
	C680.968872,536.757385 649.971130,536.831116 618.973572,536.858459 
	C617.331482,536.859863 615.689331,536.858643 613.393860,536.858643 
	C629.481140,578.114685 645.376648,618.878845 661.336914,659.809082 
	C704.665588,659.809082 747.982788,659.809082 791.928040,659.809082 
	C791.208191,661.277283 790.715637,662.367126 790.151978,663.418823 
	C781.599060,679.377563 772.994995,695.309082 764.516907,711.307434 
	C763.075134,714.028015 761.570312,715.348511 758.112061,715.343689 
	C673.952637,715.226501 589.792969,715.274658 505.633392,715.293091 
	C502.641449,715.293701 499.649506,715.293213 495.760986,715.293213 
	C500.228088,707.155823 504.313293,699.639099 508.469452,692.161865 
	C513.876953,682.433411 519.465332,672.802673 524.697388,662.981506 
	C526.093750,660.360352 527.641785,659.678284 530.465454,659.694031 
	C552.945740,659.819214 575.427002,659.763855 598.573914,659.763855 
	C598.029053,657.991882 597.692383,656.615479 597.189697,655.302734 
	C582.468323,616.857605 567.694031,578.432617 553.072815,539.949524 
	C552.035645,537.219727 550.700378,536.654907 548.003174,536.662598 
	C502.007172,536.793457 456.010742,536.854614 410.014771,536.761230 
	C406.661011,536.754456 405.134613,537.850098 403.636230,540.736938 
	C374.403107,597.058777 345.002045,653.293518 315.811188,709.637207 
	C313.632202,713.843079 311.333527,715.483337 306.407440,715.393982 
	C286.592651,715.034546 266.767548,715.245178 245.711777,715.245178 
	C285.781250,639.203857 325.454956,563.913574 365.326233,488.308960 
M445.563293,480.409088 
	C473.924805,480.409088 502.286285,480.409088 530.954224,480.409088 
	C517.203857,444.519196 503.765533,409.443665 490.026764,373.583984 
	C471.379913,409.603943 453.169556,444.780640 434.724731,480.410278 
	C438.620087,480.410278 441.606567,480.410278 445.563293,480.409088 
z"/>
</svg>