<svg xmlns="http://www.w3.org/2000/svg" viewBox="0 0 1024 1024" version="1.1">
	<path d="M 0 512.001 L 0 1024.002 512.250 1023.751 L 1024.500 1023.500 1024.751 511.750 L 1025.002 0 512.501 0 L 0 0 0 512.001 M 0.496 512.500 C 0.496 794.100, 0.610 909.151, 0.750 768.168 C 0.890 627.186, 0.890 396.786, 0.750 256.168 C 0.610 115.551, 0.496 230.900, 0.496 512.500 M 458.117 309.750 C 455.970 314.012, 448.944 327.400, 442.505 339.500 C 436.066 351.600, 417.290 387.150, 400.781 418.500 C 384.271 449.850, 364.574 487.200, 357.008 501.500 C 293.380 621.764, 246 712.238, 246 713.471 C 246 713.762, 260.786 714, 278.858 714 L 311.716 714 318.014 701.750 C 321.478 695.013, 328.448 681.625, 333.503 672 C 338.558 662.375, 349.829 640.775, 358.550 624 C 367.270 607.225, 381.258 580.450, 389.635 564.500 L 404.864 535.500 477.813 535.189 L 550.762 534.879 551.781 537.689 C 553.989 543.781, 591.970 642.974, 594.890 650.276 C 596.601 654.553, 598 658.265, 598 658.526 C 598 658.787, 581.688 659.007, 561.750 659.017 L 525.500 659.033 516.500 675.193 C 511.550 684.080, 504.728 696.449, 501.340 702.680 L 495.180 714.007 628.313 713.754 L 761.446 713.500 769.044 699.500 C 773.224 691.800, 779.790 679.650, 783.636 672.500 L 790.629 659.500 725.280 659.243 C 664.181 659.002, 659.892 658.872, 659.321 657.243 C 657.570 652.244, 618.738 552.591, 613.009 538.394 C 611.821 535.452, 619.631 535.006, 672.904 534.976 L 715.500 534.952 730.137 507.726 L 744.774 480.500 668.069 480.244 L 591.365 479.988 575.063 437.744 C 566.097 414.510, 555.440 387.032, 551.381 376.682 C 547.321 366.333, 544 357.670, 544 357.432 C 544 357.195, 590.059 357, 646.354 357 L 748.708 357 755.543 344.250 C 759.302 337.238, 765.893 325.072, 770.189 317.216 C 774.485 309.360, 778 302.722, 778 302.466 C 778 302.210, 706.905 302, 620.011 302 L 462.022 302 458.117 309.750 M 469.056 410.765 C 458.362 431.519, 446.100 455.193, 441.806 463.374 C 437.513 471.555, 434 478.643, 434 479.124 C 434 479.613, 455.208 480, 482 480 C 508.400 480, 530 479.781, 530 479.513 C 530 479.245, 525.475 467.208, 519.945 452.763 C 514.415 438.318, 505.302 414.471, 499.695 399.770 C 494.088 385.068, 489.275 373.037, 489 373.034 C 488.725 373.031, 479.750 390.010, 469.056 410.765" stroke="none" fill="currentColor" fill-rule="evenodd"/>
</svg>